<svg width="143" height="27" viewBox="0 0 143 27" fill="none" xmlns="http://www.w3.org/2000/svg">
<path d="M33.4168 21.4258C31.1447 18.7595 27.5412 13.0409 25.8128 10.2579C24.0845 7.47497 17.3333 13.7085 17.3333 13.7085C12.1737 17.5096 7.05243 22.612 4.52192 25.2763C3.70764 26.216 2.28369 26.3176 1.34422 25.5034C0.404753 24.6891 0.303098 23.2651 1.11737 22.3257C3.90914 18.7957 10.0317 11.4894 15.937 6.93721C19.4238 4.24943 22.9722 2.66097 25.8128 2.54948C27.3475 2.4949 28.8736 3.10613 30.3558 4.32496C32.5837 6.15682 34.8529 10.1615 37.3783 13.8826C38.2725 15.2002 39.1892 16.4876 40.2355 17.5083C41.0347 18.2882 41.8578 18.9646 42.8772 19.1351C45.2305 19.5368 47.1615 18.3829 48.9972 16.8078C52.2704 13.9998 55.2108 9.92582 58.3384 6.74838C61.3003 3.73856 64.4648 1.48378 68.0373 0.960506C71.4092 0.402308 73.8135 1.60458 75.8026 3.77659C77.5985 5.73726 78.9578 8.82908 80.5641 11.9212C82.0186 14.7215 83.6686 17.6594 87.2014 18.3854C90.0038 19.0044 92.3173 18.1361 94.4345 16.7189C98.1926 14.2036 101.411 10.1431 104.87 6.89996C107.993 3.97214 111.315 1.66071 115.05 0.84928C116.834 0.461283 118.99 1.06475 121.182 3.06681C123.354 5.05051 126.048 8.95789 130.198 10.8542C132.377 11.85 135.012 12.1721 138.258 11.1115C140.108 10.4949 142.11 11.4962 142.727 13.3459C143.344 15.1958 142.343 17.1984 140.493 17.8151C135.18 19.6211 130.848 19.0096 127.247 17.4175C122.946 15.5161 119.75 12.0194 117.264 9.51144C114.455 6.67555 110.563 11.7324 108.339 14.0088C105.21 17.2119 102.118 20.694 98.6404 23.0132C94.8274 25.5559 90.5892 26.8386 85.5576 25.6826C82.9831 25.0577 80.9195 23.8813 79.2377 22.3148C75.7615 19.0771 74.0579 14.066 72.1009 10.2579C71.3081 8.71579 70.7323 7.17984 69.0305 7.41651C65.7354 7.9579 63.2714 11.0867 60.6834 14.2458C57.4744 18.1635 54.2773 22.3306 50.5621 24.618C47.9113 26.2499 45.0039 27.0036 41.7357 26.5556C38.5578 26.1055 35.7637 24.18 33.4168 21.4258Z" fill="#2C698D"/>
</svg>
